<?xml version="1.0" encoding="UTF-8"?>
<svg width="249px" height="279px" viewBox="0 0 249 279" version="1.1" xmlns="http://www.w3.org/2000/svg" xmlns:xlink="http://www.w3.org/1999/xlink">
    <!-- Generator: Sketch 49 (51002) - http://www.bohemiancoding.com/sketch -->
    <title>Group 9</title>
    <desc>Created with Sketch.</desc>
    <defs></defs>
    <g id="About" stroke="none" stroke-width="1" fill="none" fill-rule="evenodd">
        <g transform="translate(-74.000000, -72.000000)" id="Group-9" stroke="#F1F1F1">
            <g transform="translate(198.500000, 211.500000) scale(-1, 1) translate(-198.500000, -211.500000) translate(69.000000, 65.000000)">
                <g id="Group" transform="translate(167.000000, 123.000000)">
                    <polygon id="Polygon" transform="translate(21.856406, 36.256406) rotate(-330.000000) translate(-21.856406, -36.256406) " points="21.8564065 20.2564065 35.7128129 28.2564065 35.7128129 44.2564065 21.8564065 52.2564065 8 44.2564065 8 28.2564065"></polygon>
                    <polygon id="Polygon-Copy" transform="translate(45.856406, 21.856406) rotate(-330.000000) translate(-45.856406, -21.856406) " points="45.8564065 5.85640646 59.7128129 13.8564065 59.7128129 29.8564065 45.8564065 37.8564065 32 29.8564065 32 13.8564065"></polygon>
                    <polygon id="Polygon-Copy-2" transform="translate(45.856406, 49.856406) rotate(-330.000000) translate(-45.856406, -49.856406) " points="45.8564065 33.8564065 59.7128129 41.8564065 59.7128129 57.8564065 45.8564065 65.8564065 32 57.8564065 32 41.8564065"></polygon>
                    <polygon id="Polygon-Copy-3" transform="translate(69.856406, 36.256406) rotate(-330.000000) translate(-69.856406, -36.256406) " points="69.8564065 20.2564065 83.7128129 28.2564065 83.7128129 44.2564065 69.8564065 52.2564065 56 44.2564065 56 28.2564065"></polygon>
                    <polygon id="Polygon-Copy-4" transform="translate(69.856406, 63.456406) rotate(-330.000000) translate(-69.856406, -63.456406) " points="69.8564065 47.4564065 83.7128129 55.4564065 83.7128129 71.4564065 69.8564065 79.4564065 56 71.4564065 56 55.4564065"></polygon>
                    <polygon id="Polygon-Copy-5" transform="translate(45.856406, 77.856406) rotate(-330.000000) translate(-45.856406, -77.856406) " points="45.8564065 61.8564065 59.7128129 69.8564065 59.7128129 85.8564065 45.8564065 93.8564065 32 85.8564065 32 69.8564065"></polygon>
                    <polygon id="Polygon-Copy-6" transform="translate(21.856406, 64.256406) rotate(-330.000000) translate(-21.856406, -64.256406) " points="21.8564065 48.2564065 35.7128129 56.2564065 35.7128129 72.2564065 21.8564065 80.2564065 8 72.2564065 8 56.2564065"></polygon>
                </g>
                <g id="Group-Copy" transform="translate(119.000000, 68.000000)">
                    <polygon id="Polygon" transform="translate(21.856406, 36.256406) rotate(-330.000000) translate(-21.856406, -36.256406) " points="21.8564065 20.2564065 35.7128129 28.2564065 35.7128129 44.2564065 21.8564065 52.2564065 8 44.2564065 8 28.2564065"></polygon>
                    <polygon id="Polygon-Copy" transform="translate(45.856406, 21.856406) rotate(-330.000000) translate(-45.856406, -21.856406) " points="45.8564065 5.85640646 59.7128129 13.8564065 59.7128129 29.8564065 45.8564065 37.8564065 32 29.8564065 32 13.8564065"></polygon>
                    <polygon id="Polygon-Copy-2" transform="translate(45.856406, 49.856406) rotate(-330.000000) translate(-45.856406, -49.856406) " points="45.8564065 33.8564065 59.7128129 41.8564065 59.7128129 57.8564065 45.8564065 65.8564065 32 57.8564065 32 41.8564065"></polygon>
                    <polygon id="Polygon-Copy-3" transform="translate(69.856406, 36.256406) rotate(-330.000000) translate(-69.856406, -36.256406) " points="69.8564065 20.2564065 83.7128129 28.2564065 83.7128129 44.2564065 69.8564065 52.2564065 56 44.2564065 56 28.2564065"></polygon>
                    <polygon id="Polygon-Copy-4" transform="translate(69.856406, 63.456406) rotate(-330.000000) translate(-69.856406, -63.456406) " points="69.8564065 47.4564065 83.7128129 55.4564065 83.7128129 71.4564065 69.8564065 79.4564065 56 71.4564065 56 55.4564065"></polygon>
                    <polygon id="Polygon-Copy-5" transform="translate(45.856406, 77.856406) rotate(-330.000000) translate(-45.856406, -77.856406) " points="45.8564065 61.8564065 59.7128129 69.8564065 59.7128129 85.8564065 45.8564065 93.8564065 32 85.8564065 32 69.8564065"></polygon>
                    <polygon id="Polygon-Copy-6" transform="translate(21.856406, 64.256406) rotate(-330.000000) translate(-21.856406, -64.256406) " points="21.8564065 48.2564065 35.7128129 56.2564065 35.7128129 72.2564065 21.8564065 80.2564065 8 72.2564065 8 56.2564065"></polygon>
                </g>
                <g id="Group-Copy-2" transform="translate(95.000000, 138.000000)">
                    <polygon id="Polygon" transform="translate(21.856406, 36.256406) rotate(-330.000000) translate(-21.856406, -36.256406) " points="21.8564065 20.2564065 35.7128129 28.2564065 35.7128129 44.2564065 21.8564065 52.2564065 8 44.2564065 8 28.2564065"></polygon>
                    <polygon id="Polygon-Copy" transform="translate(45.856406, 21.856406) rotate(-330.000000) translate(-45.856406, -21.856406) " points="45.8564065 5.85640646 59.7128129 13.8564065 59.7128129 29.8564065 45.8564065 37.8564065 32 29.8564065 32 13.8564065"></polygon>
                    <polygon id="Polygon-Copy-2" transform="translate(45.856406, 49.856406) rotate(-330.000000) translate(-45.856406, -49.856406) " points="45.8564065 33.8564065 59.7128129 41.8564065 59.7128129 57.8564065 45.8564065 65.8564065 32 57.8564065 32 41.8564065"></polygon>
                    <polygon id="Polygon-Copy-3" transform="translate(69.856406, 36.256406) rotate(-330.000000) translate(-69.856406, -36.256406) " points="69.8564065 20.2564065 83.7128129 28.2564065 83.7128129 44.2564065 69.8564065 52.2564065 56 44.2564065 56 28.2564065"></polygon>
                    <polygon id="Polygon-Copy-4" transform="translate(69.856406, 63.456406) rotate(-330.000000) translate(-69.856406, -63.456406) " points="69.8564065 47.4564065 83.7128129 55.4564065 83.7128129 71.4564065 69.8564065 79.4564065 56 71.4564065 56 55.4564065"></polygon>
                    <polygon id="Polygon-Copy-5" transform="translate(45.856406, 77.856406) rotate(-330.000000) translate(-45.856406, -77.856406) " points="45.8564065 61.8564065 59.7128129 69.8564065 59.7128129 85.8564065 45.8564065 93.8564065 32 85.8564065 32 69.8564065"></polygon>
                    <polygon id="Polygon-Copy-6" transform="translate(21.856406, 64.256406) rotate(-330.000000) translate(-21.856406, -64.256406) " points="21.8564065 48.2564065 35.7128129 56.2564065 35.7128129 72.2564065 21.8564065 80.2564065 8 72.2564065 8 56.2564065"></polygon>
                </g>
                <g id="Group-Copy-5" transform="translate(142.000000, 193.000000)">
                    <polygon id="Polygon" transform="translate(21.856406, 36.256406) rotate(-330.000000) translate(-21.856406, -36.256406) " points="21.8564065 20.2564065 35.7128129 28.2564065 35.7128129 44.2564065 21.8564065 52.2564065 8 44.2564065 8 28.2564065"></polygon>
                    <polygon id="Polygon-Copy" transform="translate(45.856406, 21.856406) rotate(-330.000000) translate(-45.856406, -21.856406) " points="45.8564065 5.85640646 59.7128129 13.8564065 59.7128129 29.8564065 45.8564065 37.8564065 32 29.8564065 32 13.8564065"></polygon>
                    <polygon id="Polygon-Copy-2" transform="translate(45.856406, 49.856406) rotate(-330.000000) translate(-45.856406, -49.856406) " points="45.8564065 33.8564065 59.7128129 41.8564065 59.7128129 57.8564065 45.8564065 65.8564065 32 57.8564065 32 41.8564065"></polygon>
                    <polygon id="Polygon-Copy-3" transform="translate(69.856406, 36.256406) rotate(-330.000000) translate(-69.856406, -36.256406) " points="69.8564065 20.2564065 83.7128129 28.2564065 83.7128129 44.2564065 69.8564065 52.2564065 56 44.2564065 56 28.2564065"></polygon>
                    <polygon id="Polygon-Copy-4" transform="translate(69.856406, 63.456406) rotate(-330.000000) translate(-69.856406, -63.456406) " points="69.8564065 47.4564065 83.7128129 55.4564065 83.7128129 71.4564065 69.8564065 79.4564065 56 71.4564065 56 55.4564065"></polygon>
                    <polygon id="Polygon-Copy-5" transform="translate(45.856406, 77.856406) rotate(-330.000000) translate(-45.856406, -77.856406) " points="45.8564065 61.8564065 59.7128129 69.8564065 59.7128129 85.8564065 45.8564065 93.8564065 32 85.8564065 32 69.8564065"></polygon>
                    <polygon id="Polygon-Copy-6" transform="translate(21.856406, 64.256406) rotate(-330.000000) translate(-21.856406, -64.256406) " points="21.8564065 48.2564065 35.7128129 56.2564065 35.7128129 72.2564065 21.8564065 80.2564065 8 72.2564065 8 56.2564065"></polygon>
                </g>
                <g id="Group-Copy-3" transform="translate(72.000000, 13.000000)">
                    <polygon id="Polygon" transform="translate(21.856406, 36.256406) rotate(-330.000000) translate(-21.856406, -36.256406) " points="21.8564065 20.2564065 35.7128129 28.2564065 35.7128129 44.2564065 21.8564065 52.2564065 8 44.2564065 8 28.2564065"></polygon>
                    <polygon id="Polygon-Copy" transform="translate(45.856406, 21.856406) rotate(-330.000000) translate(-45.856406, -21.856406) " points="45.8564065 5.85640646 59.7128129 13.8564065 59.7128129 29.8564065 45.8564065 37.8564065 32 29.8564065 32 13.8564065"></polygon>
                    <polygon id="Polygon-Copy-2" transform="translate(45.856406, 49.856406) rotate(-330.000000) translate(-45.856406, -49.856406) " points="45.8564065 33.8564065 59.7128129 41.8564065 59.7128129 57.8564065 45.8564065 65.8564065 32 57.8564065 32 41.8564065"></polygon>
                    <polygon id="Polygon-Copy-3" transform="translate(69.856406, 36.256406) rotate(-330.000000) translate(-69.856406, -36.256406) " points="69.8564065 20.2564065 83.7128129 28.2564065 83.7128129 44.2564065 69.8564065 52.2564065 56 44.2564065 56 28.2564065"></polygon>
                    <polygon id="Polygon-Copy-4" transform="translate(69.856406, 63.456406) rotate(-330.000000) translate(-69.856406, -63.456406) " points="69.8564065 47.4564065 83.7128129 55.4564065 83.7128129 71.4564065 69.8564065 79.4564065 56 71.4564065 56 55.4564065"></polygon>
                    <polygon id="Polygon-Copy-5" transform="translate(45.856406, 77.856406) rotate(-330.000000) translate(-45.856406, -77.856406) " points="45.8564065 61.8564065 59.7128129 69.8564065 59.7128129 85.8564065 45.8564065 93.8564065 32 85.8564065 32 69.8564065"></polygon>
                    <polygon id="Polygon-Copy-6" transform="translate(21.856406, 64.256406) rotate(-330.000000) translate(-21.856406, -64.256406) " points="21.8564065 48.2564065 35.7128129 56.2564065 35.7128129 72.2564065 21.8564065 80.2564065 8 72.2564065 8 56.2564065"></polygon>
                </g>
                <g id="Group-Copy-4">
                    <polygon id="Polygon" transform="translate(21.856406, 36.256406) rotate(-330.000000) translate(-21.856406, -36.256406) " points="21.8564065 20.2564065 35.7128129 28.2564065 35.7128129 44.2564065 21.8564065 52.2564065 8 44.2564065 8 28.2564065"></polygon>
                    <polygon id="Polygon-Copy" transform="translate(45.856406, 21.856406) rotate(-330.000000) translate(-45.856406, -21.856406) " points="45.8564065 5.85640646 59.7128129 13.8564065 59.7128129 29.8564065 45.8564065 37.8564065 32 29.8564065 32 13.8564065"></polygon>
                    <polygon id="Polygon-Copy-2" transform="translate(45.856406, 49.856406) rotate(-330.000000) translate(-45.856406, -49.856406) " points="45.8564065 33.8564065 59.7128129 41.8564065 59.7128129 57.8564065 45.8564065 65.8564065 32 57.8564065 32 41.8564065"></polygon>
                    <polygon id="Polygon-Copy-3" transform="translate(69.856406, 36.256406) rotate(-330.000000) translate(-69.856406, -36.256406) " points="69.8564065 20.2564065 83.7128129 28.2564065 83.7128129 44.2564065 69.8564065 52.2564065 56 44.2564065 56 28.2564065"></polygon>
                    <polygon id="Polygon-Copy-4" transform="translate(69.856406, 63.456406) rotate(-330.000000) translate(-69.856406, -63.456406) " points="69.8564065 47.4564065 83.7128129 55.4564065 83.7128129 71.4564065 69.8564065 79.4564065 56 71.4564065 56 55.4564065"></polygon>
                    <polygon id="Polygon-Copy-5" transform="translate(45.856406, 77.856406) rotate(-330.000000) translate(-45.856406, -77.856406) " points="45.8564065 61.8564065 59.7128129 69.8564065 59.7128129 85.8564065 45.8564065 93.8564065 32 85.8564065 32 69.8564065"></polygon>
                    <polygon id="Polygon-Copy-6" transform="translate(21.856406, 64.256406) rotate(-330.000000) translate(-21.856406, -64.256406) " points="21.8564065 48.2564065 35.7128129 56.2564065 35.7128129 72.2564065 21.8564065 80.2564065 8 72.2564065 8 56.2564065"></polygon>
                </g>
            </g>
        </g>
    </g>
</svg>