<?xml version="1.0" encoding="utf-8"?>
<!-- Generator: Adobe Illustrator 22.0.1, SVG Export Plug-In . SVG Version: 6.00 Build 0)  -->
<svg version="1.1" id="Layer_1" xmlns="http://www.w3.org/2000/svg" xmlns:xlink="http://www.w3.org/1999/xlink" x="0px" y="0px"
	 viewBox="0 0 100 87" style="enable-background:new 0 0 100 87;" xml:space="preserve">
<style type="text/css">
	.st0{fill:#F19C3E;}
	.st1{fill:#BBBBBB;}
	.st2{fill:#5AC1A0;}
	.st3{fill:#5AC1A0;stroke:#FFFFFF;stroke-miterlimit:10;}
	.st4{fill:none;stroke:#5AC1A0;stroke-width:2;stroke-miterlimit:10;}
	.st5{fill:#5AC1A0;stroke:#FFFFFF;stroke-width:2;stroke-miterlimit:10;}
</style>
<g>
	<path class="st2" d="M75,86.5H25L0,43.2L25-0.1h50l25,43.3L75,86.5z M26.7,83.6h46.7l23.3-40.4L73.3,2.8H26.7L3.3,43.2L26.7,83.6z"
		/>
</g>
<g>
	<circle class="st1" cx="30.1" cy="26.3" r="6.9"/>
	<circle class="st1" cx="40.9" cy="72" r="6.9"/>
	<circle class="st2" cx="70.6" cy="33.5" r="6.9"/>
	<circle class="st2" cx="28.4" cy="47" r="4.3"/>
	<circle class="st2" cx="61.8" cy="66.2" r="3.8"/>
	<circle class="st2" cx="47.7" cy="12.1" r="4.6"/>
	<circle class="st1" cx="70.5" cy="53.5" r="5.1"/>
	<path class="st0" d="M58.5,49.6l4.8,2.3c0.1-1,0.5-2,1.2-2.9c0.2-0.2,0.4-0.4,0.6-0.6l-4.9-2.4c0.6-2.2,0.5-4.6-0.3-6.8l3.3-1.2
		c-0.8-1.1-1.3-2.3-1.5-3.6l-4,1.4c-0.3-0.3-0.5-0.5-0.8-0.8c-1.4-1.2-3.1-2-4.9-2.4l-2-14.2c-1.2,0.6-2.7,0.6-3.9,0l2,14.1
		c-1.8,0.3-3.4,1.1-4.9,2.2l-5.4-4.6c-0.2,0.4-0.5,0.8-0.8,1.2c-0.5,0.6-1.1,1.1-1.8,1.5l5.5,4.8c-1,1.7-1.5,3.5-1.5,5.4L33.5,44
		c0.7,1.2,0.9,2.6,0.4,3.9L40,47c0.6,1.6,1.6,3.1,3,4.3c0.5,0.4,1.1,0.8,1.6,1.1l-3.5,11.4c1.3-0.1,2.6,0.1,3.8,0.8l3.4-10.8
		c1.4,0.2,2.8,0.2,4.2-0.2l5.3,9.6c0.2-0.4,0.5-0.8,0.9-1.2c0.7-0.6,1.5-0.8,2.4-0.9L56,51.9c0.7-0.5,1.4-1.1,2-1.8
		C58.2,50,58.3,49.8,58.5,49.6z"/>
</g>
</svg>
