<?xml version="1.0" encoding="utf-8"?>
<!-- Generator: Adobe Illustrator 22.1.0, SVG Export Plug-In . SVG Version: 6.00 Build 0)  -->
<svg version="1.1" id="Layer_1" xmlns="http://www.w3.org/2000/svg" xmlns:xlink="http://www.w3.org/1999/xlink" x="0px" y="0px"
	 viewBox="0 0 100 87" style="enable-background:new 0 0 100 87;" xml:space="preserve">
<style type="text/css">
	.st0{fill:#F19C3E;}
	.st1{fill:#BBBBBB;}
	.st2{fill:#5AC1A0;stroke:#FFFFFF;stroke-width:2;stroke-miterlimit:10;}
</style>
<g>
	<path class="st0" d="M75,86.8H25L0,43.5L25,0.2h50l25,43.3L75,86.8z M26.7,83.9h46.7l23.3-40.4L73.3,3.1H26.7L3.3,43.5L26.7,83.9z"
		/>
</g>
<path class="st1" d="M34.4,17.1c-1.1,0-2.1,0.2-3.1,0.5l6.8,6.8l-1.9,5.4l-5.1,1.4l-6.7-6.7c-0.3,1-0.5,2-0.5,3.1
	c0,5.8,4.7,10.4,10.4,10.4c5.8,0,10.4-4.7,10.4-10.4C44.8,21.8,40.1,17.1,34.4,17.1z"/>
<path class="st1" d="M66,69.8c1.1,0,2.1-0.2,3.1-0.5l-6.8-6.8l1.9-5.4l5.1-1.4l6.7,6.7c0.3-1,0.5-2,0.5-3.1
	c0-5.8-4.7-10.4-10.4-10.4c-5.8,0-10.4,4.7-10.4,10.4C55.5,65.1,60.2,69.8,66,69.8z"/>
<rect x="45.6" y="27.2" transform="matrix(0.7071 -0.7071 0.7071 0.7071 -16.2429 48.9343)" class="st1" width="10.7" height="33.8"/>
<rect x="27" y="36.4" transform="matrix(0.7071 -0.7071 0.7071 0.7071 -17.1901 47.6569)" class="st2" width="43.8" height="16.3"/>
<path class="st0" d="M75.4,25.4l-7.7-7.7c-0.7-0.7-1.8-0.7-2.5,0L60,22.9l10.3,10.3l5.2-5.2C76.1,27.3,76.1,26.1,75.4,25.4z"/>
<polygon class="st0" points="37.7,66.1 23.9,69.8 27.6,56 "/>
</svg>
