<?xml version="1.0" encoding="utf-8"?>
<!-- Generator: Adobe Illustrator 22.0.1, SVG Export Plug-In . SVG Version: 6.00 Build 0)  -->
<svg version="1.1" id="Layer_1" xmlns="http://www.w3.org/2000/svg" xmlns:xlink="http://www.w3.org/1999/xlink" x="0px" y="0px"
	 viewBox="0 0 100 87" style="enable-background:new 0 0 100 87;" xml:space="preserve">
<style type="text/css">
	.st0{fill:#F19C3E;}
	.st1{fill:#BBBBBB;}
	.st2{fill:#5AC1A0;}
	.st3{fill:#5AC1A0;stroke:#FFFFFF;stroke-miterlimit:10;}
	.st4{fill:none;stroke:#5AC1A0;stroke-width:2;stroke-miterlimit:10;}
	.st5{fill:#5AC1A0;stroke:#FFFFFF;stroke-width:2;stroke-miterlimit:10;}
</style>
<g>
	<path class="st0" d="M75,86.8H25L0,43.5L25,0.2h50l25,43.3L75,86.8z M26.7,83.9h46.7l23.3-40.4L73.3,3.1H26.7L3.4,43.5L26.7,83.9z"
		/>
</g>
<circle class="st4" cx="50" cy="28" r="16.6"/>
<ellipse class="st1" cx="24.7" cy="40.6" rx="5.9" ry="6.1"/>
<ellipse class="st1" cx="75.7" cy="40.6" rx="5.9" ry="6.1"/>
<path class="st1" d="M34.6,53.8v-3c0-1.6-2.1-3-3.3-3H18.2c-1.2,0-3.3,1.3-3.3,3v3H34.6z"/>
<path class="st1" d="M85.6,53.8v-3c0-1.6-2.1-3-3.3-3H69.2c-1.2,0-3.3,1.3-3.3,3v3H85.6z"/>
<path class="st0" d="M59.8,36.2v-3c0-1.6-2.1-3-3.3-3H43.3c-1.2,0-3.3,1.3-3.3,3v3H59.8z"/>
<ellipse class="st0" cx="49.9" cy="23.1" rx="5.9" ry="6.1"/>
<ellipse class="st1" cx="49.9" cy="55.5" rx="5.9" ry="6.1"/>
<path class="st1" d="M59.8,68.7v-3c0-1.6-2.1-3-3.3-3H43.3c-1.2,0-3.3,1.3-3.3,3v3H59.8z"/>
</svg>
