<?xml version="1.0" encoding="utf-8"?>
<!-- Generator: Adobe Illustrator 22.0.1, SVG Export Plug-In . SVG Version: 6.00 Build 0)  -->
<svg version="1.1" id="Layer_1" xmlns="http://www.w3.org/2000/svg" xmlns:xlink="http://www.w3.org/1999/xlink" x="0px" y="0px"
	 viewBox="0 0 100 87" style="enable-background:new 0 0 100 87;" xml:space="preserve">
<style type="text/css">
	.st0{fill:#F19C3E;}
	.st1{fill:#BBBBBB;}
	.st2{fill:#5AC1A0;}
	.st3{fill:#5AC1A0;stroke:#FFFFFF;stroke-miterlimit:10;}
	.st4{fill:none;stroke:#5AC1A0;stroke-width:2;stroke-miterlimit:10;}
	.st5{fill:#5AC1A0;stroke:#FFFFFF;stroke-width:2;stroke-miterlimit:10;}
</style>
<g>
	<path class="st0" d="M75.4,86.8h-50l-25-43.3l25-43.3h50l25,43.3L75.4,86.8z M27,83.9h46.7L97,43.5L73.7,3.1H27L3.7,43.5L27,83.9z"
		/>
</g>
<path class="st2" d="M62.6,62.2L50,49.7c-0.7-0.7-0.7-1.8,0-2.5l0,0c0.7-0.7,1.8-0.7,2.5,0l12.5,12.5c0.7,0.7,0.7,1.8,0,2.5l0,0
	C64.4,62.9,63.3,62.9,62.6,62.2z"/>
<path class="st2" d="M69.5,71.6L52.6,54.7c-0.7-0.7-0.7-1.8,0-2.5l2.5-2.5c0.7-0.7,1.8-0.7,2.5,0l16.8,16.8c0.7,0.7,0.7,1.8,0,2.5
	l-2.5,2.5C71.3,72.2,70.1,72.2,69.5,71.6z"/>
<circle class="st4" cx="38.8" cy="33.6" r="17.9"/>
<rect x="30.7" y="28.6" transform="matrix(-1.836970e-16 1 -1 -1.836970e-16 70.8718 -10.1282)" class="st0" width="19.5" height="3.5"/>
<rect x="37.1" y="30.4" transform="matrix(-1.836970e-16 1 -1 -1.836970e-16 77.1909 -12.8091)" class="st1" width="15.9" height="3.5"/>
<rect x="44.9" y="33.7" transform="matrix(-1.836970e-16 1 -1 -1.836970e-16 84.9945 -14.0055)" class="st0" width="9.3" height="3.5"/>
<rect x="30.2" y="32.6" transform="matrix(-1.836970e-16 1 -1 -1.836970e-16 70.3077 -1.6923)" class="st1" width="11.6" height="3.5"/>
<rect x="27.7" y="34.6" transform="matrix(-1.836970e-16 1 -1 -1.836970e-16 67.8195 4.8195)" class="st0" width="7.6" height="3.5"/>
<rect x="24.7" y="36.1" transform="matrix(-1.836970e-16 1 -1 -1.836970e-16 64.8097 10.8097)" class="st1" width="4.6" height="3.5"/>
</svg>
