<?xml version="1.0" encoding="utf-8"?>
<!-- Generator: Adobe Illustrator 22.0.1, SVG Export Plug-In . SVG Version: 6.00 Build 0)  -->
<svg version="1.1" id="Layer_1" xmlns="http://www.w3.org/2000/svg" xmlns:xlink="http://www.w3.org/1999/xlink" x="0px" y="0px"
	 viewBox="0 0 100 87" style="enable-background:new 0 0 100 87;" xml:space="preserve">
<style type="text/css">
	.st0{fill:#F19C3E;}
	.st1{fill:#BBBBBB;}
	.st2{fill:#5AC1A0;}
	.st3{fill:#5AC1A0;stroke:#FFFFFF;stroke-miterlimit:10;}
	.st4{fill:none;stroke:#5AC1A0;stroke-width:2;stroke-miterlimit:10;}
	.st5{fill:#5AC1A0;stroke:#FFFFFF;stroke-width:2;stroke-miterlimit:10;}
</style>
<g>
	<path class="st0" d="M75,86.6H25L0,43.3L25,0h50l25,43.3L75,86.6z M26.7,83.7h46.7l23.3-40.4L73.3,2.9H26.7L3.3,43.3L26.7,83.7z"/>
</g>
<path class="st1" d="M71.5,16.9H28.2c-1,0-1.7-0.8-1.7-1.7v0c0-1,0.8-1.7,1.7-1.7h43.2c1,0,1.8,0.8,1.8,1.7v0
	C73.2,16.1,72.5,16.9,71.5,16.9z"/>
<path class="st1" d="M71.5,23.9H53.8c-1,0-1.7-0.8-1.7-1.7v0c0-1,0.8-1.7,1.7-1.7h17.7c1,0,1.8,0.8,1.8,1.7v0
	C73.2,23.1,72.5,23.9,71.5,23.9z"/>
<path class="st1" d="M46,23.9H28.2c-1,0-1.7-0.8-1.7-1.7v0c0-1,0.8-1.7,1.7-1.7H46c1,0,1.7,0.8,1.7,1.7v0C47.7,23.1,47,23.9,46,23.9
	z"/>
<path class="st1" d="M46,73.9H28.2c-1,0-1.7-0.8-1.7-1.8l0,0c0-1,0.8-1.8,1.7-1.8H46c1,0,1.7,0.8,1.7,1.8l0,0
	C47.7,73.1,47,73.9,46,73.9z"/>
<path class="st1" d="M46,66.9H28.2c-1,0-1.7-0.8-1.7-1.8l0,0c0-1,0.8-1.8,1.7-1.8H46c1,0,1.7,0.8,1.7,1.8l0,0
	C47.7,66.1,47,66.9,46,66.9z"/>
<path class="st1" d="M46,59.9H28.2c-1,0-1.7-0.8-1.7-1.7v0c0-1,0.8-1.8,1.7-1.8H46c1,0,1.7,0.8,1.7,1.8v0C47.7,59.1,47,59.9,46,59.9
	z"/>
<path class="st2" d="M66.2,72.2v-21c0-1,0.8-1.8,1.8-1.8h3.5c1,0,1.8,0.8,1.8,1.8v21c0,1-0.8,1.8-1.8,1.8H68
	C67,74,66.2,73.2,66.2,72.2z"/>
<path class="st2" d="M58.1,72.2V56.5c0-1,0.8-1.8,1.8-1.8h3.5c1,0,1.7,0.8,1.7,1.8v15.7c0,1-0.8,1.8-1.7,1.8h-3.5
	C58.9,74,58.1,73.2,58.1,72.2z"/>
<path class="st2" d="M50,72.2V60.8c0-1,0.8-1.8,1.7-1.8h3.5c1,0,1.8,0.8,1.8,1.8v11.5c0,1-0.8,1.8-1.8,1.8h-3.5
	C50.8,74,50,73.2,50,72.2z"/>
<path class="st1" d="M71.5,35H53.8c-1,0-1.7-0.8-1.7-1.7v0c0-1,0.8-1.8,1.7-1.8h17.7c1,0,1.8,0.8,1.8,1.8v0
	C73.2,34.2,72.5,35,71.5,35z"/>
<path class="st1" d="M71.5,42H53.8c-1,0-1.7-0.8-1.7-1.7v0c0-1,0.8-1.8,1.7-1.8h17.7c1,0,1.8,0.8,1.8,1.8v0
	C73.2,41.2,72.5,42,71.5,42z"/>
<path class="st0" d="M37.1,29.8c-5.9,0-10.6,4.8-10.6,10.6S31.3,51,37.1,51s10.6-4.8,10.6-10.6H37.1V29.8z"/>
<path class="st2" d="M38.1,28.8v10.6h10.6C48.7,33.5,44,28.8,38.1,28.8z"/>
</svg>
