<?xml version="1.0" encoding="utf-8"?>
<!-- Generator: Adobe Illustrator 22.0.1, SVG Export Plug-In . SVG Version: 6.00 Build 0)  -->
<svg version="1.1" id="Layer_1" xmlns="http://www.w3.org/2000/svg" xmlns:xlink="http://www.w3.org/1999/xlink" x="0px" y="0px"
	 viewBox="0 0 100 87" style="enable-background:new 0 0 100 87;" xml:space="preserve">
<style type="text/css">
	.st0{fill:#F19C3E;}
	.st1{fill:#BBBBBB;}
	.st2{fill:#5AC1A0;}
	.st3{fill:#5AC1A0;stroke:#FFFFFF;stroke-miterlimit:10;}
	.st4{fill:none;stroke:#5AC1A0;stroke-width:2;stroke-miterlimit:10;}
	.st5{fill:#5AC1A0;stroke:#FFFFFF;stroke-width:2;stroke-miterlimit:10;}
</style>
<g>
	<path class="st2" d="M75,86.8H25L0,43.5L25,0.2h50l25,43.3L75,86.8z M26.7,83.9h46.7l23.3-40.4L73.3,3.1H26.7L3.3,43.5L26.7,83.9z"
		/>
</g>
<circle class="st2" cx="64.2" cy="34.8" r="5.8"/>
<rect x="32.8" y="36.4" transform="matrix(0.5706 0.8212 -0.8212 0.5706 47.8649 -17.4058)" class="st1" width="15.5" height="1.4"/>
<polygon class="st0" points="58.9,60.4 27.7,60.4 27.7,24.1 73.1,24.1 73.1,52.2 76.3,55.6 76.3,20.9 24.4,20.9 24.4,63.7 
	59.1,63.7 "/>
<polygon class="st3" points="47,40.9 51.5,47 59.3,41.8 70,41.8 79.4,56.8 70,63.1 66.6,57.8 70,55.2 66.4,50.9 59.2,56.6 
	67.2,67.1 72.1,63.5 72.2,72.4 56.9,72.4 56.9,53.7 51.9,57.3 42.2,44.6 "/>
</svg>
