<?xml version="1.0" encoding="utf-8"?>
<!-- Generator: Adobe Illustrator 22.0.1, SVG Export Plug-In . SVG Version: 6.00 Build 0)  -->
<svg version="1.1" id="Layer_1" xmlns="http://www.w3.org/2000/svg" xmlns:xlink="http://www.w3.org/1999/xlink" x="0px" y="0px"
	 viewBox="0 0 480 68" style="enable-background:new 0 0 480 68;" xml:space="preserve">
<style type="text/css">
	.st0{fill:#FAA819;}
	.st1{fill:#515252;}
	.st2{fill:#FAA819;stroke:#323030;stroke-width:2.2122;stroke-miterlimit:10;}
	.st3{fill:#FAA819;stroke:#323030;stroke-width:1.958;stroke-miterlimit:10;}
	.st4{fill:#323030;}
	.st5{fill:#323030;stroke:#323030;stroke-width:0.4895;stroke-miterlimit:10;}
</style>
<g>
	<path class="st0" d="M27.1,11.1v42.5c0,7.5-6.1,13.6-13.5,13.6C6.1,67.3,0,61.2,0,53.7V11.1c0-1.1,0.9-1.9,1.9-1.9h3.8
		c1.1,0,1.9,0.8,1.9,1.9v42.5c0,3.4,2.7,6.1,6.1,6.1c3.3,0,6-2.7,6-6.1V11.1c0-1.1,0.8-1.9,1.9-1.9h3.8
		C26.3,9.2,27.1,10.1,27.1,11.1z"/>
	<path class="st0" d="M55.1,26.7v-4c0-3.3-2.7-6-6-6c-3.3,0-6,2.7-6,6c0,1.5,0,1.5,0.4,2l16.3,21.6c2.8,3.8,2.8,3.8,2.8,7.5
		c0,7.4-6.1,13.5-13.5,13.5c-7.4,0-13.5-6.1-13.5-13.5v-4c0-1.1,0.8-1.9,1.9-1.9h3.8c1.1,0,1.9,0.8,1.9,1.9v4c0,3.3,2.7,6,6,6
		c3.3,0,6-2.7,6-6c0-1.5,0-1.5-0.4-2L38.4,30.2c-2.8-3.8-2.8-3.8-2.8-7.5c0-7.4,6.1-13.5,13.5-13.5c7.4,0,13.5,6.1,13.5,13.5v4
		c0,1.1-0.8,1.9-1.9,1.9H57C55.9,28.6,55.1,27.8,55.1,26.7z"/>
	<path class="st0" d="M78.6,16.7v17.7h10.2c1.1,0,1.9,0.8,1.9,1.9v3.8c0,1.1-0.8,1.9-1.9,1.9H78.6v17.8h10.2c1.1,0,1.9,0.8,1.9,1.9
		v3.8c0,1.1-0.8,1.9-1.9,1.9H74.9c-2.1,0-3.8-1.8-3.8-3.8V13c0-2.1,1.6-3.8,3.8-3.8h13.9c1.1,0,1.9,0.8,1.9,1.9v3.8
		c0,1.1-0.8,1.9-1.9,1.9H78.6z"/>
	<path class="st0" d="M126.8,28.4c0,3.9-1.5,7.4-4.1,9.8c2.6,2.5,4.1,5.9,4.1,9.7v17.5c0,0.9-0.8,1.9-1.9,1.9h-3.8
		c-1.1,0-1.9-0.9-1.9-1.9V47.9c0-3.3-2.7-6-6-6h-6v23.4c0,0.9-0.9,1.9-1.9,1.9h-3.8c-1.1,0-1.9-0.9-1.9-1.9V13
		c0-2.1,1.6-3.8,3.8-3.8h9.7c7.5,0,13.5,6.1,13.5,13.5V28.4z M119.3,22.7c0-3.3-2.7-6-6-6h-6v17.7h6c3.3,0,6-2.7,6-6.1V22.7z"/>
	<path class="st1" d="M156,26.8v-4c0-3.4-2.7-6-6-6c-3.3,0-6,2.6-6,6v31.1c0,3.3,2.7,6,6,6c3.3,0,6-2.7,6-6V41.8h-4.1
		c-1.1,0-1.9-0.8-1.9-1.8v-3.8c0-1.1,0.8-1.9,1.9-1.9h9.7c1.1,0,1.9,0.8,1.9,1.9v17.6c0,7.4-6.1,13.4-13.5,13.4
		c-7.4,0-13.5-6-13.5-13.4V22.8c0-7.5,6.1-13.5,13.5-13.5c7.4,0,13.5,6,13.5,13.5v4c0,1.1-0.8,1.9-1.9,1.9h-3.8
		C156.8,28.7,156,27.9,156,26.8z"/>
	<path class="st1" d="M200.3,22.7v30.9c0,7.5-6.1,13.6-13.5,13.6c-7.5,0-13.6-6.1-13.6-13.6V22.7c0-7.4,6.1-13.5,13.6-13.5
		C194.2,9.2,200.3,15.3,200.3,22.7z M192.8,22.7c0-3.3-2.7-6-6-6c-3.4,0-6.1,2.7-6.1,6v30.9c0,3.4,2.7,6.1,6.1,6.1
		c3.3,0,6-2.7,6-6.1V22.7z"/>
	<path class="st1" d="M237.1,22.7v30.9c0,7.5-6.1,13.6-13.5,13.6c-7.5,0-13.6-6.1-13.6-13.6V22.7c0-7.4,6.1-13.5,13.6-13.5
		C231,9.2,237.1,15.3,237.1,22.7z M229.6,22.7c0-3.3-2.7-6-6-6c-3.4,0-6.1,2.7-6.1,6v30.9c0,3.4,2.7,6.1,6.1,6.1c3.3,0,6-2.7,6-6.1
		V22.7z"/>
	<path class="st1" d="M273.9,22.8v30.8c0,7.5-6,13.6-13.5,13.6h-9.8c-2,0-3.8-1.8-3.8-3.8V13c0-2.1,1.8-3.8,3.8-3.8h9.8
		C267.9,9.2,273.9,15.3,273.9,22.8z M266.4,22.8c0-3.4-2.7-6.1-6-6.1h-6.1v42.9h6.1c3.3,0,6-2.7,6-6V22.8z"/>
	<path class="st1" d="M310.7,22.7v42.7c0,0.9-0.8,1.9-1.9,1.9h-3.8c-1.1,0-1.9-0.9-1.9-1.9V22.7c0-3.3-2.7-6-6-6
		c-3.4,0-6.1,2.7-6.1,6v42.7c0,0.9-0.8,1.9-1.9,1.9h-3.8c-1.1,0-1.9-0.9-1.9-1.9V22.7c0-7.4,6.1-13.5,13.6-13.5
		C304.6,9.2,310.7,15.3,310.7,22.7z"/>
	<path class="st1" d="M327.9,16.7v17.7h10.2c1.1,0,1.9,0.8,1.9,1.9v3.8c0,1.1-0.8,1.9-1.9,1.9h-10.2v17.8h10.2
		c1.1,0,1.9,0.8,1.9,1.9v3.8c0,1.1-0.8,1.9-1.9,1.9h-13.9c-2.1,0-3.8-1.8-3.8-3.8V13c0-2.1,1.6-3.8,3.8-3.8h13.9
		c1.1,0,1.9,0.8,1.9,1.9v3.8c0,1.1-0.8,1.9-1.9,1.9H327.9z"/>
	<path class="st1" d="M364.5,26.7v-4c0-3.3-2.7-6-6-6c-3.3,0-6,2.7-6,6c0,1.5,0,1.5,0.4,2l16.3,21.6C372,50,372,50,372,53.8
		c0,7.4-6.1,13.5-13.5,13.5c-7.4,0-13.5-6.1-13.5-13.5v-4c0-1.1,0.8-1.9,1.9-1.9h3.8c1.1,0,1.9,0.8,1.9,1.9v4c0,3.3,2.7,6,6,6
		c3.3,0,6-2.7,6-6c0-1.5,0-1.5-0.4-2l-16.3-21.6c-2.8-3.8-2.8-3.8-2.8-7.5c0-7.4,6.1-13.5,13.5-13.5c7.4,0,13.5,6.1,13.5,13.5v4
		c0,1.1-0.8,1.9-1.9,1.9h-3.8C365.3,28.6,364.5,27.8,364.5,26.7z"/>
	<path class="st1" d="M398.8,26.7v-4c0-3.3-2.7-6-6-6c-3.3,0-6,2.7-6,6c0,1.5,0,1.5,0.4,2l16.3,21.6c2.8,3.8,2.8,3.8,2.8,7.5
		c0,7.4-6.1,13.5-13.5,13.5s-13.5-6.1-13.5-13.5v-4c0-1.1,0.8-1.9,1.9-1.9h3.8c1.1,0,1.9,0.8,1.9,1.9v4c0,3.3,2.7,6,6,6
		c3.3,0,6-2.7,6-6c0-1.5,0-1.5-0.4-2l-16.3-21.6c-2.8-3.8-2.8-3.8-2.8-7.5c0-7.4,6.1-13.5,13.5-13.5s13.5,6.1,13.5,13.5v4
		c0,1.1-0.8,1.9-1.9,1.9h-3.8C399.7,28.6,398.8,27.8,398.8,26.7z"/>
</g>
<g>
	<path class="st2" d="M459.1,45.1l-8.5-18.9l19.7,6.4c1.9,0.3,3.7,1.1,5.2,2.5c4.1,3.7,4.5,10.1,0.8,14.2
		c-3.7,4.1-10.1,4.5-14.2,0.8C460.6,48.6,459.6,46.9,459.1,45.1z"/>
	<path class="st2" d="M438.2,45.1l8.5-18.9L427,32.6c-1.9,0.3-3.7,1.1-5.2,2.5c-4.1,3.7-4.5,10.1-0.8,14.2
		c3.7,4.1,10.1,4.5,14.2,0.8C436.7,48.7,437.7,47,438.2,45.1z"/>
	<path class="st3" d="M443.9,21.3c0,2.5-2.1,4.6-4.6,4.6c-2.5,0-4.6-2.1-4.6-4.6c0-2.5,2.1-4.6,4.6-4.6
		C441.8,16.7,443.9,18.8,443.9,21.3z"/>
	<path class="st3" d="M462.6,21.3c0,2.5-2.1,4.6-4.6,4.6c-2.5,0-4.6-2.1-4.6-4.6c0-2.5,2.1-4.6,4.6-4.6
		C460.6,16.7,462.6,18.8,462.6,21.3z"/>
	<path class="st3" d="M458.8,21.3c0,5.6-4.5,10.1-10.1,10.1c-5.6,0-10.1-4.5-10.1-10.1c0-5.6,4.5-10.1,10.1-10.1
		C454.2,11.2,458.8,15.7,458.8,21.3z"/>
	<path class="st3" d="M464.3,44.7c0-8.7-7-15.7-15.7-15.7S433,36,433,44.7c0,4.8,2.2,9.2,5.6,12l10,10l10-10
		C462.1,53.9,464.3,49.5,464.3,44.7z"/>
	<rect x="433.1" y="45.7" class="st4" width="31" height="3.2"/>
	<rect x="435.7" y="51.9" class="st4" width="25.9" height="3.2"/>
	<polygon class="st4" points="454.1,61.6 442.7,61.6 440.2,58.4 456.9,58.4 	"/>
	<rect x="433.1" y="39" class="st4" width="31" height="3.2"/>
	<path class="st5" d="M437.4,0c-0.2,0-0.3,0-0.5,0v1.2c0.2,0,0.3,0,0.5,0c5,0,9,4.1,9,9.1c0,0.1,0,0.2,0,0.3h1.2c0-0.1,0-0.2,0-0.3
		C447.7,4.6,443.1,0,437.4,0z"/>
	<path class="st5" d="M459.9,0c0.2,0,0.3,0,0.5,0v1.2c-0.2,0-0.3,0-0.5,0c-5,0-9,4.1-9,9.1c0,0.1,0,0.2,0,0.3h-1.2
		c0-0.1,0-0.2,0-0.3C449.6,4.6,454.2,0,459.9,0z"/>
</g>
</svg>
